<svg id="visual" viewBox="0 0 900 600" width="900" height="600" xmlns="http://www.w3.org/2000/svg" xmlns:xlink="http://www.w3.org/1999/xlink" version="1.1"><rect x="0" y="0" width="900" height="600" fill="#FFFFFF"></rect><path d="M441 0L450 20C459 40 477 80 482.5 120C488 160 481 200 463.3 240C445.7 280 417.3 320 419.5 360C421.7 400 454.3 440 464.3 480C474.3 520 461.7 560 455.3 580L449 600L0 600L0 580C0 560 0 520 0 480C0 440 0 400 0 360C0 320 0 280 0 240C0 200 0 160 0 120C0 80 0 40 0 20L0 0Z" fill="#90bdff" stroke-linecap="round" stroke-linejoin="miter"></path></svg>