<svg id="visual" viewBox="0 0 900 600" width="900" height="600" xmlns="http://www.w3.org/2000/svg" xmlns:xlink="http://www.w3.org/1999/xlink" version="1.1"><rect x="0" y="0" width="900" height="600" fill="#FFFFFF"></rect><path d="M490 0L472.3 20C454.7 40 419.3 80 402.2 120C385 160 386 200 396.2 240C406.3 280 425.7 320 443.7 360C461.7 400 478.3 440 479.3 480C480.3 520 465.7 560 458.3 580L451 600L0 600L0 580C0 560 0 520 0 480C0 440 0 400 0 360C0 320 0 280 0 240C0 200 0 160 0 120C0 80 0 40 0 20L0 0Z" fill="#90bdff" stroke-linecap="round" stroke-linejoin="miter"></path></svg>